<svg width="45" height="35" viewBox="0 0 45 35" fill="none" xmlns="http://www.w3.org/2000/svg">
<g clip-path="url(#clip0_74_67)">
<path d="M0 0H30V7H0V0ZM30 7H45V14H30V7ZM30 21H45V28H30V21ZM0 14H30V21H0V14ZM0 28H30V35H0V28ZM64.71 25.62C63.74 25.62 62.85 25.43 62.04 25.05C61.23 24.67 60.59 24.11 60.12 23.39C59.64 22.66 59.41 21.78 59.41 20.75C59.41 19.95 59.56 19.28 59.86 18.73C60.16 18.18 60.59 17.74 61.14 17.39C61.69 17.04 62.35 16.76 63.1 16.56C63.86 16.36 64.69 16.2 65.6 16.09C66.5 15.98 67.27 15.88 67.89 15.8C68.52 15.72 68.99 15.58 69.32 15.4C69.65 15.22 69.81 14.92 69.81 14.52V14.14C69.81 13.04 69.48 12.17 68.83 11.54C68.18 10.91 67.24 10.59 66.01 10.59C64.78 10.59 63.9 10.85 63.17 11.36C62.44 11.87 61.93 12.47 61.63 13.17L59.85 12.53C60.21 11.65 60.72 10.94 61.36 10.41C62 9.88 62.73 9.5 63.52 9.26C64.32 9.03 65.13 8.91 65.95 8.91C66.57 8.91 67.21 8.99 67.88 9.15C68.55 9.31 69.17 9.59 69.74 9.98C70.31 10.38 70.78 10.93 71.14 11.63C71.5 12.33 71.68 13.22 71.68 14.3V25.25H69.81V22.7H69.69C69.47 23.18 69.13 23.64 68.69 24.09C68.25 24.54 67.7 24.91 67.03 25.19C66.36 25.48 65.58 25.62 64.69 25.62H64.71ZM64.96 23.91C65.95 23.91 66.82 23.69 67.54 23.25C68.27 22.81 68.83 22.22 69.23 21.49C69.63 20.76 69.82 19.95 69.82 19.07V16.74C69.68 16.87 69.45 16.99 69.12 17.1C68.79 17.2 68.42 17.3 68 17.38C67.58 17.46 67.15 17.53 66.73 17.59C66.31 17.65 65.93 17.69 65.59 17.74C64.68 17.85 63.9 18.03 63.26 18.27C62.62 18.51 62.12 18.84 61.78 19.25C61.44 19.67 61.27 20.2 61.27 20.85C61.27 21.83 61.62 22.59 62.32 23.12C63.02 23.66 63.9 23.92 64.96 23.92V23.91ZM84.09 19.09V9.12H85.96V25.25H84.09V22.57H83.94C83.56 23.4 82.96 24.08 82.14 24.63C81.32 25.18 80.32 25.45 79.14 25.45C78.11 25.45 77.2 25.22 76.4 24.77C75.6 24.32 74.97 23.66 74.52 22.78C74.07 21.9 73.84 20.83 73.84 19.56V9.11H75.71V19.44C75.71 20.7 76.08 21.71 76.82 22.48C77.56 23.25 78.51 23.63 79.68 23.63C80.41 23.63 81.11 23.46 81.78 23.11C82.45 22.76 83.01 22.25 83.44 21.57C83.87 20.89 84.09 20.06 84.09 19.08V19.09ZM94.12 25.59C92.8 25.59 91.64 25.24 90.64 24.54C89.64 23.84 88.87 22.86 88.31 21.61C87.75 20.36 87.47 18.9 87.47 17.23C87.47 15.56 87.75 14.12 88.31 12.87C88.87 11.62 89.65 10.65 90.65 9.95C91.65 9.25 92.82 8.9 94.15 8.9C95.13 8.9 95.95 9.07 96.6 9.42C97.25 9.77 97.77 10.2 98.17 10.71C98.56 11.22 98.87 11.72 99.08 12.2H99.25V3.74H101.13V25.25H99.3V22.26H99.08C98.86 22.75 98.55 23.25 98.16 23.77C97.76 24.28 97.23 24.72 96.58 25.07C95.92 25.42 95.11 25.6 94.13 25.6L94.12 25.59ZM94.34 23.88C95.38 23.88 96.27 23.6 97.01 23.02C97.75 22.44 98.31 21.66 98.7 20.66C99.09 19.65 99.28 18.5 99.28 17.2C99.28 15.91 99.09 14.77 98.7 13.78C98.32 12.79 97.75 12.01 97.02 11.45C96.28 10.89 95.39 10.6 94.34 10.6C93.29 10.6 92.35 10.89 91.61 11.48C90.87 12.07 90.31 12.85 89.93 13.85C89.55 14.84 89.36 15.96 89.36 17.2C89.36 18.44 89.55 19.58 89.94 20.59C90.33 21.6 90.89 22.4 91.63 22.99C92.37 23.58 93.27 23.88 94.34 23.88ZM105.69 6.35C105.3 6.35 104.98 6.22 104.7 5.96C104.43 5.7 104.29 5.38 104.29 5.01C104.29 4.64 104.43 4.32 104.7 4.06C104.97 3.8 105.3 3.67 105.69 3.67C106.08 3.67 106.4 3.8 106.68 4.06C106.96 4.32 107.09 4.64 107.09 5.01C107.09 5.38 106.95 5.7 106.68 5.96C106.41 6.22 106.08 6.35 105.69 6.35ZM104.73 25.25V9.12H106.61V25.25H104.73ZM116.22 25.59C114.83 25.59 113.6 25.24 112.53 24.53C111.46 23.82 110.63 22.84 110.03 21.59C109.43 20.34 109.13 18.9 109.13 17.26C109.13 15.62 109.43 14.15 110.03 12.9C110.63 11.64 111.47 10.66 112.53 9.96C113.6 9.26 114.83 8.9 116.22 8.9C117.61 8.9 118.84 9.25 119.91 9.96C120.97 10.67 121.81 11.65 122.41 12.9C123.02 14.15 123.32 15.61 123.32 17.26C123.32 18.91 123.02 20.34 122.42 21.59C121.82 22.84 120.98 23.82 119.92 24.53C118.85 25.24 117.62 25.59 116.23 25.59H116.22ZM116.22 23.88C117.34 23.88 118.29 23.58 119.07 22.98C119.85 22.38 120.44 21.58 120.84 20.58C121.24 19.58 121.44 18.48 121.44 17.27C121.44 16.07 121.24 14.96 120.84 13.95C120.44 12.94 119.85 12.13 119.07 11.52C118.29 10.91 117.34 10.61 116.22 10.61C115.1 10.61 114.16 10.91 113.38 11.52C112.6 12.13 112.01 12.94 111.6 13.95C111.2 14.96 111 16.06 111 17.27C111 18.48 111.2 19.58 111.6 20.58C112 21.58 112.59 22.38 113.37 22.98C114.15 23.58 115.1 23.88 116.22 23.88ZM127.84 3.74V25.25H125.97V3.74H127.84ZM137.57 25.59C136.18 25.59 134.95 25.24 133.88 24.53C132.81 23.82 131.98 22.84 131.38 21.59C130.78 20.34 130.48 18.9 130.48 17.26C130.48 15.62 130.78 14.15 131.38 12.9C131.98 11.64 132.82 10.66 133.88 9.96C134.95 9.26 136.18 8.9 137.57 8.9C138.96 8.9 140.19 9.25 141.26 9.96C142.32 10.67 143.16 11.65 143.76 12.9C144.37 14.15 144.67 15.61 144.67 17.26C144.67 18.91 144.37 20.34 143.77 21.59C143.17 22.84 142.33 23.82 141.27 24.53C140.2 25.24 138.97 25.59 137.58 25.59H137.57ZM137.57 23.88C138.69 23.88 139.64 23.58 140.42 22.98C141.2 22.38 141.79 21.58 142.19 20.58C142.59 19.58 142.79 18.48 142.79 17.27C142.79 16.07 142.59 14.96 142.19 13.95C141.79 12.94 141.2 12.13 140.42 11.52C139.64 10.91 138.69 10.61 137.57 10.61C136.45 10.61 135.51 10.91 134.73 11.52C133.95 12.13 133.36 12.94 132.95 13.95C132.55 14.96 132.35 16.06 132.35 17.27C132.35 18.48 132.55 19.58 132.95 20.58C133.35 21.58 133.94 22.38 134.72 22.98C135.5 23.58 136.45 23.88 137.57 23.88ZM153.56 25.59C152.17 25.59 150.94 25.24 149.87 24.53C148.8 23.82 147.97 22.84 147.37 21.59C146.77 20.34 146.47 18.9 146.47 17.26C146.47 15.62 146.77 14.15 147.37 12.9C147.97 11.64 148.81 10.66 149.87 9.96C150.94 9.26 152.17 8.9 153.56 8.9C154.95 8.9 156.18 9.25 157.25 9.96C158.31 10.67 159.15 11.65 159.75 12.9C160.36 14.15 160.66 15.61 160.66 17.26C160.66 18.91 160.36 20.34 159.76 21.59C159.16 22.84 158.32 23.82 157.26 24.53C156.19 25.24 154.96 25.59 153.57 25.59H153.56ZM153.56 23.88C154.68 23.88 155.63 23.58 156.41 22.98C157.19 22.38 157.78 21.58 158.18 20.58C158.58 19.58 158.78 18.48 158.78 17.27C158.78 16.06 158.58 14.96 158.18 13.95C157.78 12.94 157.19 12.13 156.41 11.52C155.63 10.91 154.68 10.61 153.56 10.61C152.44 10.61 151.5 10.91 150.72 11.52C149.94 12.13 149.35 12.94 148.94 13.95C148.54 14.96 148.34 16.06 148.34 17.27C148.34 18.47 148.54 19.58 148.94 20.58C149.34 21.58 149.93 22.38 150.71 22.98C151.49 23.58 152.44 23.88 153.56 23.88ZM163.27 25.25V9.12H165.09V11.6H165.26C165.58 10.77 166.12 10.11 166.87 9.63C167.62 9.15 168.53 8.91 169.58 8.91C170.69 8.91 171.61 9.17 172.33 9.69C173.05 10.21 173.59 10.93 173.94 11.84H174.08C174.44 10.94 175.04 10.23 175.86 9.7C176.68 9.17 177.68 8.91 178.86 8.91C180.36 8.91 181.54 9.38 182.41 10.32C183.28 11.26 183.71 12.64 183.71 14.44V25.25H181.84V14.44C181.84 13.17 181.51 12.21 180.86 11.57C180.21 10.93 179.35 10.61 178.29 10.61C177.06 10.61 176.11 10.99 175.44 11.74C174.77 12.5 174.44 13.46 174.44 14.62V25.24H172.53V14.27C172.53 13.18 172.23 12.3 171.62 11.62C171.01 10.95 170.15 10.61 169.05 10.61C168.31 10.61 167.64 10.79 167.05 11.16C166.46 11.52 165.99 12.03 165.65 12.68C165.31 13.33 165.14 14.07 165.14 14.91V25.24H163.27V25.25Z" fill="currentColor"/>
</g>
<defs>
<clipPath id="clip0_74_67">
<rect width="45" height="35" fill="white"/>
</clipPath>
</defs>
</svg>
